<!-- Generator: Adobe Illustrator 21.0.2, SVG Export Plug-In  -->
<svg version="1.1"
	 xmlns="http://www.w3.org/2000/svg" xmlns:xlink="http://www.w3.org/1999/xlink" xmlns:a="http://ns.adobe.com/AdobeSVGViewerExtensions/3.0/"
	 x="0px" y="0px" width="343.6px" height="332.1px" viewBox="0 0 343.6 332.1" style="enable-background:new 0 0 343.6 332.1;"
	 xml:space="preserve">
<style type="text/css">
	.st0{fill:#FFFFFF;}
</style>
<defs>
</defs>
<path class="st0" d="M215.9,212.4c-39.5,41.5-105.2,43.1-146.7,3.5S26.1,110.7,65.7,69.2c39.5-41.5,105.2-43.1,146.7-3.5
	C253.9,105.2,255.5,170.9,215.9,212.4 M237.9,38.9C181.6-14.8,92.5-12.6,38.9,43.7c-53.6,56.3-51.5,145.4,4.8,199.1
	c51.7,49.3,131,51.3,185.2,7.8L312,327c7.4,7.1,19.3,6.8,26.4-0.6c7.1-7.4,6.8-19.3-0.6-26.4l-83.2-76.5
	C295.5,167.2,289.6,88.1,237.9,38.9"/>
<path class="st0" d="M204.9,87.8c3.4,3.2,3.5,8.6,0.3,12c-3.2,3.4-8.6,3.5-12,0.3c-28.8-27.5-74.4-26.4-101.9,2.5
	c-3.2,3.4-8.6,3.5-12,0.3c-3.4-3.2-3.5-8.6-0.3-12C112.9,55.2,169.3,53.9,204.9,87.8"/>
</svg>
