<!-- Generator: Adobe Illustrator 21.0.2, SVG Export Plug-In  -->
<svg version="1.1"
	 xmlns="http://www.w3.org/2000/svg" xmlns:xlink="http://www.w3.org/1999/xlink" xmlns:a="http://ns.adobe.com/AdobeSVGViewerExtensions/3.0/"
	 x="0px" y="0px" width="668.4px" height="622px" viewBox="0 0 668.4 622" style="enable-background:new 0 0 668.4 622;"
	 xml:space="preserve">
<style type="text/css">
	.st0{fill:#FFFFFF;}
</style>
<defs>
</defs>
<g>
	<path class="st0" d="M558.2,246l-21.8,18.8l85.7,81.7l18.7-20.5C640.7,326.1,640.7,269.5,558.2,246"/>
	<path class="st0" d="M405.1,544.6c-3.6,3.7-9.4,3.8-13.1,0.2c-3.7-3.5-3.8-9.4-0.2-13.1l176-181.5c3.6-3.7,9.4-3.8,13.1-0.2
		c3.7,3.5,3.8,9.4,0.2,13.1L405.1,544.6z M525.6,275.1l-218,222.6l-30.7,110.6l119.8-30.7l215-219.6L525.6,275.1z"/>
	<path class="st0" d="M43,537.8V197.4c0-14.6,11.9-26.5,26.5-26.5h86c14.5,0,26.5-11.9,26.5-26.5V84.2c0-14.6,11.9-26.5,26.5-26.5
		h25.1c-1-8.5-1.6-17.1-1.6-25.8c0-10.9,0.8-21.5,2.4-32h-75.5c-14.6,0-34.7,8.6-44.7,19.2L18.3,119.8C8.2,130.3,0,150.9,0,165.4
		v430.1C0,610.1,11.9,622,26.5,622h222.8l10.8-57.8H69.5C54.9,564.2,43,552.4,43,537.8"/>
	<path class="st0" d="M148.2,267.9c-13.3-13.1-13.3-34.7,0-47.8l12-12c13.3-13.1,34.9-13.1,48.2,0l75.7,75.1
		c13.3,13.1,34.9,13.1,48.2,0L598.2,19.5c13.3-13.1,34.9-13.1,48.2,0l12,12c13.3,13.1,13.3,34.7,0,47.8L332.4,402.8
		c-13.3,13.1-34.9,13.1-48.2,0L148.2,267.9z"/>
</g>
</svg>
