<?xml version="1.0" encoding="utf-8"?>
<!-- Generator: Adobe Illustrator 21.1.0, SVG Export Plug-In . SVG Version: 6.00 Build 0)  -->
<svg version="1.1" id="Layer_1" xmlns="http://www.w3.org/2000/svg" xmlns:xlink="http://www.w3.org/1999/xlink" x="0px" y="0px"
	 viewBox="0 0 124 124" style="enable-background:new 0 0 124 124;" xml:space="preserve">
<style type="text/css">
	.st0{fill:none;stroke:#FFFFFF;stroke-width:5;stroke-linejoin:round;}
	.st1{fill:none;stroke:#FFFFFF;stroke-width:5;stroke-miterlimit:10;}
</style>
<title>modes-of-operation</title>
<g id="Layer_2">
	<g id="Layer_1-2">
		<path class="st0" d="M95.4,60.4c-4.2,0-7.6,3.4-7.6,7.6v-5.7c0-4.2-3.4-7.6-7.6-7.6c-4.2,0-7.6,3.4-7.6,7.6v-4.8
			c0-4.2-3.4-7.6-7.6-7.6c-4.2,0-7.6,3.4-7.6,7.6V20.2c0-4.2-3.4-7.6-7.6-7.6s-7.6,3.4-7.6,7.6c0,0,0,0,0,0v57.2l-7.5-15
			c-2-4-6.9-5.6-10.9-3.6c-4,2-5.6,6.9-3.6,10.9L43,114.8c1.5,3,4.7,4.7,8,4.4c0.2,0,0.3,0,0.5,0h42.4c5,0,9.1-4.1,9.1-9.1V68
			C103,63.8,99.6,60.4,95.4,60.4C95.4,60.4,95.4,60.4,95.4,60.4z"/>
		<polyline class="st1" points="35.3,32.4 35.3,3.3 64.3,3.3 64.3,32.4 		"/>
		<rect x="78.1" y="3.3" class="st1" width="29" height="29"/>
		<polyline class="st1" points="78.1,48.7 78.1,43 107.1,43 107.1,56 		"/>
	</g>
</g>
</svg>
