<!-- Generator: Adobe Illustrator 21.0.2, SVG Export Plug-In  -->
<svg version="1.1"
	 xmlns="http://www.w3.org/2000/svg" xmlns:xlink="http://www.w3.org/1999/xlink" xmlns:a="http://ns.adobe.com/AdobeSVGViewerExtensions/3.0/"
	 x="0px" y="0px" width="409.1px" height="549.6px" viewBox="0 0 409.1 549.6" style="enable-background:new 0 0 409.1 549.6;"
	 xml:space="preserve">
<style type="text/css">
	.st0{fill:#FFFFFF;}
</style>
<defs>
</defs>
<g>
	<path class="st0" d="M223.2,350.2h-38.3v-37.5h38.3V350.2z M150.2,208.1c2.8-7.3,6.8-13.6,11.9-19c5.1-5.4,11.3-9.5,18.5-12.5
		c7.2-3,15.3-4.5,24.2-4.5c11.5,0,21.2,1.6,28.9,4.7c7.7,3.2,13.9,7.1,18.6,11.8c4.7,4.7,8.1,9.8,10.1,15.2c2,5.4,3.1,10.5,3.1,15.2
		c0,7.8-1,14.2-3.1,19.3c-2,5-4.5,9.3-7.6,12.9c-3,3.6-6.3,6.6-10,9.1c-3.6,2.5-7.1,5-10.3,7.6c-3.3,2.5-6.1,5.4-8.7,8.6
		c-2.5,3.3-4.1,7.3-4.7,12.2v9.3h-32.9v-11c0.5-7,1.8-12.8,4-17.6c2.2-4.7,4.7-8.7,7.7-12.1c2.9-3.3,6-6.2,9.3-8.7
		c3.2-2.4,6.2-4.9,9-7.3c2.8-2.4,5-5.1,6.7-8c1.7-2.9,2.5-6.6,2.3-11c0-7.5-1.8-13-5.5-16.6c-3.6-3.6-8.7-5.4-15.2-5.4
		c-4.4,0-8.2,0.9-11.3,2.6c-3.2,1.7-5.8,4-7.8,6.8c-2,2.8-3.5,6.2-4.5,10c-1,3.8-1.5,7.9-1.5,12.3h-35.8
		C145.9,223.5,147.4,215.5,150.2,208.1 M68,398.7l32.9-38.8V204.5c0-88.4,75.4-103.3,96.8-105.8c2.3,0.3,4.5,0.7,6.8,0.7
		c2.3,0,4.4-0.4,6.6-0.7c22,2.5,97,17.6,97,105.8v155.3l32.9,38.8H68z M204.6,518.1c-23.9,0-43.3-19.4-43.3-43.3
		c0-23.9,19.4-43.3,43.3-43.3c23.9,0,43.3,19.4,43.3,43.3C247.8,498.7,228.4,518.1,204.6,518.1 M186.3,49.7c0-10,8.2-18.2,18.2-18.2
		c10,0,18.2,8.2,18.2,18.2c0,8.4-5.9,15.2-13.6,17.3c-1.1-0.1-2.3-0.2-3.3-0.2l-3.1,0c-0.9,0-1.9,0.2-2.9,0.2
		C192.1,64.9,186.3,58.1,186.3,49.7 M409.1,430.2l-69.4-81.9V204.5c0-78.5-48.3-115.6-92.3-130.1c4.2-7.3,6.9-15.7,6.9-24.8
		C254.3,22.3,232,0,204.6,0c-27.4,0-49.7,22.3-49.7,49.7c0,9,2.6,17.4,6.8,24.7c-43.8,14.4-92.2,51.5-92.2,130.1v143.8L0,430.2
		h144.9c-9.4,12.5-15.1,27.8-15.1,44.6c0,41.2,33.5,74.8,74.8,74.8c41.2,0,74.8-33.5,74.8-74.8c0-16.8-5.8-32.1-15.1-44.6H409.1z"/>
</g>
</svg>
