<!-- Generator: Adobe Illustrator 21.0.2, SVG Export Plug-In  -->
<svg version="1.1"
	 xmlns="http://www.w3.org/2000/svg" xmlns:xlink="http://www.w3.org/1999/xlink" xmlns:a="http://ns.adobe.com/AdobeSVGViewerExtensions/3.0/"
	 x="0px" y="0px" width="565.6px" height="452.9px" viewBox="0 0 565.6 452.9" style="enable-background:new 0 0 565.6 452.9;"
	 xml:space="preserve">
<style type="text/css">
	.st0{fill:#FFFFFF;}
</style>
<defs>
</defs>
<g>
	<path class="st0" d="M565.3,241.1c0.8,1.9,0.3,3-1,4.3c-15.4,16.4-34.4,26.2-56.1,31.2c-4.1,0.9-8.2,1.8-12.4,2.2
		c-7.1,0.8-14.2,1.2-21,1.7c-6.4-0.5-12.4-0.8-18.4-1.5c-1.3-0.1-2.8-0.8-3.8-1.7c-41.5-37.2-82.9-74.5-124.3-111.7
		c-10.3-9.3-20.6-18.5-30.9-27.8c-1.7-1.6-3.2-1.8-5.4-1.2c-18.7,4.9-37.2,10.4-56.1,14.1c-19.9,4-39.3,1.4-56.7-10
		c-9.5-6.2-16.1-14.8-21.2-24.9c-4.8-9.6,3.1-18.9,9.8-20.8c33.1-9.6,65-22.3,97.2-34.3c10.5-3.9,21.5-5.7,32.7-5.1
		c1.7,0.1,3.5,0.5,5.1,1.1c33.7,12.5,67.4,25,101.1,37.5c1.3,0.5,3.1,0.5,4.5,0.1c29.4-8,125.4-34.2,153.7-42.1c0,0,3.6-0.6,3.6,3
		C565.6,58.8,565.3,241.1,565.3,241.1"/>
	<path class="st0" d="M99.8,235.8c15.9-8.5,30.8-2.4,38.7,6.3c7.4,8.1,12.7,22.7,2.5,38c14.7-2.2,26.7,2.4,34.1,15.3
		c7.6,13.1,5.4,25.6-5.7,37c4.5,0,8.5-0.6,12.2,0.1c11.6,2.1,19.7,8.8,23.6,19.9c3.8,10.7,1.8,20.5-6.1,28.9
		c-5,5.3-9.9,10.8-14.8,16.2c-3.3,3.6-6.6,7.2-9.8,10.9c-10.4,11.7-29,12.3-40,1.3c-22.5-22.4-42.1-47.2-61.4-72.2
		c-13.5-17.5-26.8-35-40.2-52.5c-5-6.5-9.2-13.4-10.7-21.5c-1.4-8,0.1-15.3,6-21.3c6.8-7.1,13.6-14.3,20.4-21.4
		c12.3-12.9,34.4-10.8,45.7,4.2c1.2,1.6,2.3,3.4,3.2,5.2C98.3,231.7,99,233.7,99.8,235.8"/>
	<path class="st0" d="M296.8,435.2c-6,6.2-12.6,11.1-20.6,13.9c-21.5,7.5-40.9,4.1-57.5-12.1c-7.5-7.4-14.9-14.9-22.5-22.5
		c5.7-6.3,11.3-12.4,17.1-18.7c0.8,0.8,1.6,1.4,2.3,2.2c7.1,7.1,14.2,14.3,21.3,21.3c13.2,13,35.9,9.7,44.9-6.8
		c-0.7-0.7-1.4-1.5-2.1-2.2c-17.7-17.7-35.5-35.5-53.2-53.2c-2.9-2.9-3.9-6.3-2.8-10.2c1.1-4,3.9-6.5,8-7.3c3.9-0.7,7,0.8,9.7,3.5
		c19.8,19.8,39.6,39.6,59.4,59.5c2.8,2.8,5.8,5.5,8.5,8.5c7.1,8.1,16,9.2,25.6,6.6c9.9-2.7,16.7-9.2,20.7-18.7c0.8-2,0.5-3.3-1-4.8
		c-32.8-32.7-65.5-65.4-98.2-98.1c-2.9-2.9-4.7-6.1-3.9-10.4c1.5-7.4,9.9-10.7,16-6.2c1.1,0.8,2,1.8,3,2.8
		c33.1,33.1,66.3,66.2,99.3,99.5c3.4,3.4,6.6,4.1,10.9,3.4c12.5-2.1,23.2-12.7,25.5-25.2c0.4-2.1-0.5-3.2-1.8-4.5
		c-37.7-37.7-75.4-75.4-113.1-113.1c-3.1-3.1-4.8-6.6-3.5-11.1c2.2-7.4,11.1-9.8,16.7-4.6c3,2.8,5.8,5.8,8.7,8.7
		c26.6,26.6,53.3,53.3,79.9,79.9c8.4,8.4,16.9,16.8,25.3,25.2c1.2,1.3,2.4,1.6,4.1,1.3c18.2-2.7,30.1-22.8,23.7-40
		c-0.4-1-0.8-2-1.2-3.1c9.1,0.8,18,1.6,27.8,2.5c0.2,4.5,1,9.4,0.5,14.2c-2.7,25.3-16.4,42-40.4,50.4c-1,0.4-2.1,1.6-2.5,2.7
		c-6.9,22.7-21.7,36.9-45,41.3c-6,1.1-9.3,3.4-12.4,8.5c-16.1,26-49.6,33.7-75.8,17.9C297.9,435.8,297.5,435.6,296.8,435.2"/>
	<path class="st0" d="M237.6,48.9c-13.3,4.7-25.8,9.2-38.4,13.5c-0.8,0.3-1.9,0.1-2.8-0.2c-34.8-11.2-69.5-22.4-104.2-33.7
		c-1.8-0.6-3.2-0.7-4.8,0.6c-32.2,26.5-52.6,60-59.7,101.3c-2.4,13.6-2.8,27.3-1.7,41.1c0.8,9.5,6.3,16.8,11.8,24.1
		c1.1,1.5,2.3,2.9,2.1,3.2c-5.5,6.2-11,12.4-16.9,19.1c-3.8-5-7.5-9.7-11-14.5c-8.2-11.4-11.5-24.2-11.9-38.1
		c-0.8-29.2,3.7-57.3,15.8-84C30.9,48.2,53,20.9,83.5,0.8c1.5-1,2.7-1,4.3-0.5c43.5,14.1,86.9,28.1,130.4,42.2
		C224.4,44.5,230.6,46.6,237.6,48.9"/>
</g>
</svg>
