<?xml version="1.0" encoding="utf-8"?>
<!-- Generator: Adobe Illustrator 21.1.0, SVG Export Plug-In . SVG Version: 6.00 Build 0)  -->
<svg version="1.1" id="Layer_1" xmlns="http://www.w3.org/2000/svg" xmlns:xlink="http://www.w3.org/1999/xlink" x="0px" y="0px"
	 viewBox="0 0 150 150.3" style="enable-background:new 0 0 150 150.3;" xml:space="preserve">
<style type="text/css">
	.st0{fill:none;stroke:#FFFFFF;stroke-width:5;stroke-miterlimit:10;}
	.st1{fill:none;stroke:#FFFFFF;stroke-width:4;stroke-miterlimit:10;}
</style>
<title>care-maintenance</title>
<g id="Layer_2">
	<g id="Layer_1-2">
		<path class="st0" d="M12,139.2c0,0,15.5-5.9,21-7.5c4.8-1.4,30,11.9,30,11.9s4.8,2.6,13.7,1.8c5.6-0.6,10.9-2.6,15.4-5.8
			l40.7-28.9c0,0,9.9-6.5,3.9-13.4c-5.6-6.4-13.2,0-13.2,0s-9.8,7.1-20.7,13.7"/>
		<path class="st0" d="M4.7,111.3l18.1-6.8c5.2-1.8,10.5-3,16-3.4c8.6-0.4,16.2,2.2,26.3,3.9c11.2,1.9,16,0.4,21.3-0.1
			c4.4-0.4,10,2.1,10.4,6.5c0.3,4.6-3,8.7-7.6,9.4c-3.7,0.7-23.6,2.6-23.6,2.6"/>
		<path class="st0" d="M45.9,5.1l7.5,7.5c4.1,4.4,3.9,11.2-0.5,15.3c-4.2,3.9-10.6,3.9-14.8,0l-7.1-7.1c-3.6,12.4,3.6,25.4,16,29
			s25.4-3.6,29-16s-3.6-25.4-16-29C55.3,3.5,50.5,3.6,45.9,5.1L45.9,5.1z"/>
		<polygon class="st0" points="29.8,85.3 39.1,68.1 51.2,69.3 52.3,81.4 35.2,90.7 		"/>
		<line class="st0" x1="50.4" y1="69.7" x2="60.7" y2="59.5"/>
		<path class="st0" d="M74.8,36.5l35.3,29.2c5,5.3,4.7,13.7-0.6,18.6c-5.1,4.8-13,4.8-18,0L62.2,49.1"/>
		<path class="st0" d="M84.5,18.5l6.6-8c5.4-4.9,13.7-4.5,18.6,0.9c4.6,5,4.6,12.7,0,17.8L93.1,42.8"/>
		<ellipse transform="matrix(0.7071 -0.7071 0.7071 0.7071 -23.168 92.403)" class="st1" cx="100" cy="74.2" rx="4.2" ry="4.2"/>
	</g>
</g>
</svg>
