<!-- Generator: Adobe Illustrator 21.0.2, SVG Export Plug-In  -->
<svg version="1.1"
	 xmlns="http://www.w3.org/2000/svg" xmlns:xlink="http://www.w3.org/1999/xlink" xmlns:a="http://ns.adobe.com/AdobeSVGViewerExtensions/3.0/"
	 x="0px" y="0px" width="364.7px" height="557.3px" viewBox="0 0 364.7 557.3" style="enable-background:new 0 0 364.7 557.3;"
	 xml:space="preserve">
<style type="text/css">
	.st0{fill:#FFFFFF;}
</style>
<defs>
</defs>
<g>
	<path class="st0" d="M315,147.4h-15.2c-0.3-1.8-0.7-3.5-1.1-5.2c0,0,0-0.1,0-0.1c-0.2-0.8-0.5-1.6-0.7-2.4c0-0.1,0-0.1-0.1-0.2
		c-0.2-0.8-0.5-1.6-0.8-2.3l0,0l13.1-7.7L300,112.4l-13.1,7.7c-2-2.4-4.2-4.6-6.6-6.6l7.6-13.1l-17.2-10l-7.6,13.1
		c-0.5-0.2-1-0.3-1.5-0.5c-0.3-0.1-0.6-0.2-1-0.3c-0.7-0.2-1.4-0.4-2.1-0.6c-0.1,0-0.2-0.1-0.3-0.1c-1.6-0.4-3.3-0.8-5-1.1V85.7
		h-19.9v15.2c-1.8,0.3-3.5,0.7-5.2,1.2c0,0-0.1,0-0.1,0c-0.8,0.2-1.6,0.5-2.5,0.7c0,0-0.1,0-0.1,0.1c-0.8,0.3-1.6,0.5-2.4,0.8
		l-7.7-13.1l-17.1,10.1l7.8,13.2c-2.4,2-4.6,4.2-6.6,6.6l-13.2-7.7l-4.9,8.3v-12.4h-9.9c-0.2-1.1-0.4-2.3-0.7-3.4c0,0,0,0,0-0.1
		c-0.1-0.5-0.3-1-0.4-1.6c0,0,0-0.1-0.1-0.1c-0.2-0.5-0.3-1-0.5-1.5l8.5-5l-6.6-11.1l-8.5,5c-1.3-1.5-2.7-3-4.3-4.3l5-8.5l-11.2-6.5
		l-5,8.5c-0.3-0.1-0.7-0.2-1-0.3c-0.2-0.1-0.4-0.1-0.6-0.2c-0.4-0.2-0.9-0.3-1.4-0.4c-0.1,0-0.1,0-0.2-0.1c-1-0.3-2.1-0.5-3.2-0.7
		v-9.9h-12.9v9.9c-1.2,0.2-2.3,0.5-3.4,0.8l0,0c-0.5,0.1-1.1,0.3-1.6,0.5c0,0-0.1,0-0.1,0c-0.5,0.2-1,0.3-1.5,0.5l-5-8.5l-11.1,6.6
		l5,8.5c-1.5,1.3-3,2.8-4.3,4.3l-8.6-5l-6.5,11.2l8.6,5c0,0.1,0,0.1,0,0.2c-0.2,0.5-0.3,1-0.5,1.4c-0.1,0.4-0.3,0.8-0.4,1.3
		c0,0.1-0.1,0.2-0.1,0.3c-0.3,1.1-0.5,2.1-0.7,3.2H88v12.9h10c0.1,0.6,0.2,1.1,0.3,1.7c0,0,0,0,0,0c0.1,0.5,0.3,1.1,0.4,1.6
		c0,0,0,0,0,0.1c0.1,0.5,0.3,1,0.4,1.5c0,0,0,0.1,0,0.1c0.2,0.5,0.3,1,0.5,1.5l-8.6,5.1l6.6,11.1l8.6-5.1c1.3,1.5,2.7,2.9,4.3,4.2
		l-5,8.6l11.2,6.5l5-8.6c0.3,0.1,0.6,0.2,0.9,0.3c0.2,0.1,0.4,0.1,0.7,0.2c0.4,0.1,0.9,0.3,1.3,0.4c0.1,0,0.2,0,0.2,0.1
		c0.5,0.1,1,0.3,1.6,0.4h0c0.5,0.1,1.1,0.2,1.6,0.3v10h12.9v-10c1.1-0.2,2.2-0.4,3.3-0.7l0.1,0c0.5-0.1,1-0.3,1.6-0.5
		c0,0,0.1,0,0.1,0c0.5-0.2,1-0.3,1.5-0.5l5.1,8.6l11.1-6.6l-5.1-8.6c1.5-1.3,3-2.7,4.3-4.3l8.6,5l6.5-11.2l-8.6-5
		c0.1-0.4,0.3-0.7,0.4-1.1c0.1-0.2,0.1-0.4,0.2-0.6c0.1-0.4,0.3-0.9,0.4-1.3c0-0.1,0-0.2,0.1-0.3c0.1-0.5,0.3-1,0.4-1.5
		c0,0,0,0,0-0.1c0.1-0.5,0.2-1.1,0.3-1.6v0h9.6l-4.8,8.3l13.2,7.7c0,0.1,0,0.2-0.1,0.2c-0.3,0.7-0.5,1.5-0.7,2.2
		c-0.2,0.6-0.4,1.3-0.6,2c0,0.2-0.1,0.3-0.1,0.5c-0.4,1.6-0.8,3.3-1.1,5h-15.3v19.9h15.4c0.1,0.9,0.3,1.7,0.5,2.6v0
		c0.2,0.8,0.4,1.7,0.6,2.5c0,0,0,0.1,0,0.1c0.2,0.8,0.5,1.6,0.7,2.4c0,0.1,0,0.1,0.1,0.2c0.3,0.8,0.5,1.5,0.8,2.3l-13.2,7.8
		l10.1,17.1l13.2-7.8c2,2.3,4.2,4.5,6.6,6.5l-7.7,13.3l17.2,10l7.7-13.3c0.5,0.2,1,0.3,1.4,0.5c0.3,0.1,0.7,0.2,1,0.4
		c0.7,0.2,1.4,0.4,2.1,0.6c0.1,0,0.2,0.1,0.4,0.1c0.8,0.2,1.6,0.4,2.4,0.6h0c0.8,0.2,1.7,0.3,2.5,0.5v15.4h19.9v-15.4
		c1.7-0.3,3.5-0.7,5.1-1.1c0,0,0.1,0,0.1,0c0.8-0.2,1.6-0.4,2.4-0.7c0.1,0,0.1-0.1,0.2-0.1c0.8-0.2,1.5-0.5,2.3-0.8l7.8,13.2
		l17.1-10.1l-7.8-13.2c2.4-2,4.5-4.2,6.5-6.6l13.2,7.7l10-17.2l-13.2-7.7v0c0.2-0.5,0.4-1.1,0.6-1.6c0.1-0.3,0.2-0.5,0.3-0.8
		c0.2-0.7,0.4-1.4,0.6-2c0-0.1,0.1-0.3,0.1-0.4c0.2-0.8,0.4-1.6,0.6-2.4c0,0,0-0.1,0-0.1c0.2-0.8,0.4-1.7,0.5-2.5v0H315V147.4z
		 M223.2,258.9H208c-0.3-1.8-0.7-3.5-1.2-5.2c0,0,0-0.1,0-0.1c-0.2-0.8-0.5-1.6-0.7-2.4c0-0.1-0.1-0.1-0.1-0.2
		c-0.3-0.8-0.5-1.5-0.8-2.3l13.1-7.7l-10.1-17.1l-13.1,7.7c-2-2.4-4.2-4.6-6.6-6.6l7.7-13.1l-17.2-10l-7.7,13.1
		c-0.5-0.2-1-0.3-1.5-0.5c-0.3-0.1-0.7-0.2-1-0.3c-0.7-0.2-1.4-0.4-2.1-0.6c-0.1,0-0.2-0.1-0.4-0.1c-1.6-0.5-3.3-0.8-5-1.1v-15.2
		h-19.9v15.2c-1.8,0.3-3.5,0.7-5.2,1.2c0,0-0.1,0-0.1,0c-0.8,0.2-1.6,0.5-2.5,0.7c-0.1,0-0.1,0-0.2,0c-0.8,0.3-1.6,0.5-2.3,0.8l0,0
		l-7.7-13.1l-17.1,10.1l7.8,13.1v0c-2.4,2-4.6,4.2-6.6,6.6l-13.2-7.7l-10,17.2l13.2,7.7c0,0.1,0,0.1-0.1,0.2
		c-0.3,0.7-0.5,1.5-0.8,2.2c-0.2,0.6-0.4,1.3-0.6,2c0,0.1-0.1,0.3-0.1,0.5c-0.4,1.6-0.8,3.3-1.1,5H79.7v19.9H95
		c0.2,0.9,0.3,1.7,0.5,2.6l0,0c0.2,0.8,0.4,1.7,0.6,2.5c0,0,0,0.1,0,0.1c0.2,0.8,0.4,1.6,0.7,2.4c0,0.1,0,0.2,0.1,0.2
		c0.3,0.8,0.5,1.5,0.8,2.3l-13.2,7.8L94.7,314l13.2-7.8c2,2.3,4.2,4.5,6.6,6.5l-7.7,13.3l17.2,10l7.7-13.3c0.5,0.2,0.9,0.3,1.4,0.5
		c0.3,0.1,0.7,0.3,1,0.4c0.7,0.2,1.4,0.4,2,0.6c0.1,0,0.3,0.1,0.4,0.1c0.8,0.2,1.6,0.4,2.4,0.6l0,0c0.8,0.2,1.7,0.3,2.5,0.5v15.4
		h19.9v-15.4c1.8-0.3,3.5-0.7,5.2-1.1c0,0,0.1,0,0.1,0c0.8-0.2,1.6-0.4,2.4-0.7c0.1,0,0.1-0.1,0.2-0.1c0.8-0.3,1.5-0.5,2.3-0.8
		l7.8,13.2l17.1-10.1l-7.8-13.2c2.4-2,4.6-4.2,6.6-6.6l13.2,7.7l10-17.2l-13.2-7.7v0c0.2-0.5,0.4-1.1,0.6-1.6
		c0.1-0.3,0.2-0.6,0.3-0.9c0.2-0.7,0.4-1.4,0.6-2c0-0.1,0.1-0.3,0.1-0.4c0.2-0.8,0.4-1.6,0.6-2.4c0,0,0-0.1,0-0.1
		c0.2-0.8,0.3-1.7,0.5-2.5h0h15.2V258.9z M364.7,182.4c0,38.1-11.7,73.5-31.7,102.7c0,0-78.1,107.1-78.1,125.2H109.8
		c0-18.1-78.1-125.2-78.1-125.2C11.7,255.9,0,220.5,0,182.4C0,81.7,81.6,0,182.4,0S364.7,81.7,364.7,182.4 M177.9,268.8
		c0-14.6-11.9-26.4-26.5-26.4c-14.6,0-26.4,11.8-26.4,26.4c0,14.6,11.8,26.5,26.4,26.5C166.1,295.3,177.9,283.4,177.9,268.8
		 M189.9,268.8c0,21.2-17.2,38.4-38.4,38.4c-21.2,0-38.4-17.2-38.4-38.4c0-21.2,17.2-38.4,38.4-38.4
		C172.7,230.4,189.9,247.6,189.9,268.8 M269.8,157.3c0-14.6-11.8-26.4-26.4-26.4s-26.4,11.8-26.4,26.4c0,14.6,11.8,26.5,26.4,26.5
		S269.8,172,269.8,157.3 M281.7,157.3c0,21.2-17.2,38.4-38.4,38.4c-21.2,0-38.4-17.2-38.4-38.4c0-21.2,17.2-38.4,38.4-38.4
		C264.5,118.9,281.7,136.1,281.7,157.3 M151.9,115.1c0-9.5-7.7-17.2-17.2-17.2c-9.5,0-17.2,7.7-17.2,17.2c0,9.5,7.7,17.2,17.2,17.2
		C144.2,132.3,151.9,124.6,151.9,115.1 M159.7,115.1c0,13.8-11.2,25-25,25c-13.8,0-25-11.2-25-25c0-13.8,11.2-25,25-25
		C148.5,90.2,159.7,101.3,159.7,115.1 M207.5,527h-50.4c-9.4,0-17.1,1.7-17.1,11.1v2c0,9.4,7.7,17.1,17.1,17.1h50.4
		c9.4,0,17.1-7.7,17.1-17.1v-2C224.7,528.7,217,527,207.5,527 M237.8,476.7H127c-9.4,0-17.1,7.7-17.1,17.1v2
		c0,9.4,7.7,17.1,17.1,17.1h110.8c9.4,0,17.1-7.7,17.1-17.1v-2C254.9,484.4,247.2,476.7,237.8,476.7 M237.8,426.5
		c9.4,0,17.1,7.7,17.1,17.1v2c0,9.4-7.7,17.1-17.1,17.1H127c-9.4,0-17.1-7.7-17.1-17.1v-2c0-9.4,7.7-17.1,17.1-17.1H237.8z"/>
</g>
</svg>
