<!-- Generator: Adobe Illustrator 21.0.2, SVG Export Plug-In  -->
<svg version="1.1"
	 xmlns="http://www.w3.org/2000/svg" xmlns:xlink="http://www.w3.org/1999/xlink" xmlns:a="http://ns.adobe.com/AdobeSVGViewerExtensions/3.0/"
	 x="0px" y="0px" width="519.8px" height="502.5px" viewBox="0 0 519.8 502.5" style="enable-background:new 0 0 519.8 502.5;"
	 xml:space="preserve">
<style type="text/css">
	.st0{fill:#FFFFFF;}
</style>
<defs>
</defs>
<path class="st0" d="M326.7,321.4c-59.8,62.8-159.2,65.2-222,5.4s-65.2-159.2-5.4-222c59.8-62.8,159.2-65.2,222-5.4
	C384.1,159.2,386.5,258.6,326.7,321.4 M360,58.8c-85.2-81.2-220-77.9-301.2,7.3c-81.2,85.2-77.9,220,7.3,301.2
	c78.2,74.5,198.2,77.7,280.2,11.8l125.8,115.7c11.3,10.7,29.3,10.3,40-1c10.7-11.3,10.3-29.3-1-40L385.3,338.1
	C447.2,253,438.2,133.3,360,58.8"/>
<g>
	<path class="st0" d="M230.9,231.8h81.6c5,0,9.1-4.1,9.1-9.1l0-18.1c0-5-4.1-9.1-9.1-9.1h-81.6v-81.6c0-5-4.1-9.1-9.1-9.1l-18.1,0
		c-5,0-9.1,4.1-9.1,9.1v81.6H113c-5,0-9.1,4.1-9.1,9.1l0,18.1c0,5,4.1,9.1,9.1,9.1h81.6v81.6c0,5,4.1,9.1,9.1,9.1l18.1,0
		c5,0,9.1-4.1,9.1-9.1V231.8z"/>
</g>
</svg>
