<!-- Generator: Adobe Illustrator 21.0.2, SVG Export Plug-In  -->
<svg version="1.1"
	 xmlns="http://www.w3.org/2000/svg" xmlns:xlink="http://www.w3.org/1999/xlink" xmlns:a="http://ns.adobe.com/AdobeSVGViewerExtensions/3.0/"
	 x="0px" y="0px" width="447px" height="258.6px" viewBox="0 0 447 258.6" style="enable-background:new 0 0 447 258.6;"
	 xml:space="preserve">
<style type="text/css">
	.st0{fill:#FFFFFF;}
</style>
<defs>
</defs>
<g>
	<path class="st0" d="M435.8,65L246.3,3.4c-15-4.6-39.5-4.5-54.4,0.3l-180.7,61c-14.9,4.8-14.9,12.6,0,17.4l31.2,10v116.7h-1
		c-3.8,0-6.8,3.1-6.8,6.9v10c0,3.2,2.1,5.9,5,6.7v6.3c0,2.7,1.5,5,3.8,6.2v6.5c0,4,3.2,7.3,7.2,7.3h2.9c4,0,7.2-3.3,7.2-7.3v-6
		c2.8-0.9,4.8-3.5,4.8-6.6v-6.8c2.2-1.1,3.8-3.5,3.8-6.2v-10c0-3.8-3-6.9-6.8-6.9h-1V76.4c0-3.5-1.9-6.6-4.7-8.3v-1.3
		c5.2,0,9.5,4.3,9.5,9.6v23.2l125.7,43.3c14.9,4.8,39.4,4.9,54.4,0.3l189.5-61.4C450.7,77.2,450.7,69.6,435.8,65z"/>
	<path class="st0" d="M318.8,141.3l-72.5,22.3c-15,4.6-39.5,4.5-54.4-0.3l-68.2-21.7c-14.9-4.8-27.2,4.4-27.2,20.3v14.5
		c0,15.9,12.2,32.9,27.1,37.8l68.3,22.3c14.9,4.9,39.4,5.1,54.4,0.6l72.4-21.7c15-4.5,27.3-21.2,27.3-37.1v-16.3
		C346,145.9,333.8,136.7,318.8,141.3z"/>
</g>
</svg>
