<svg xmlns="http://www.w3.org/2000/svg" xmlns:xlink="http://www.w3.org/1999/xlink" xmlns:a="http://ns.adobe.com/AdobeSVGViewerExtensions/3.0/" version="1.1" x="0px" y="0px" width="162px" height="62.1px" viewBox="0 0 162 62.1" style="enable-background:new 0 0 162 62.1;" xml:space="preserve">
<style type="text/css">
	.st0{fill:#FFFFFF;}
	.st1{fill:#004593;}
	.st2{fill:#F27707;}
</style>
<defs>
</defs>
<g>
	<path class="st0" d="M62.1,31.1c0,17.2-13.9,31.1-31.1,31.1C13.9,62.1,0,48.2,0,31.1C0,13.9,13.9,0,31.1,0   C48.2,0,62.1,13.9,62.1,31.1"/>
	<path id="XMLID_23_" class="st1" d="M101,54.3l-17.1,0c-2.1,0-3.7-1.7-3.7-3.7l0-38.8c0-2.1,1.6-3.7,3.7-3.7l16,0   c8.8,0,14.1,5.1,14.1,11.8c0,6.7-4.1,9.1-5.5,9.7c2.2,0.6,8.3,3.1,8.3,11.5C116.7,48.3,110.9,54.3,101,54.3 M99.6,14.9   c0,0,0.8,0-12,0l0,11.7c7.2,0,12,0,12,0c4.7,0,7-2.6,7-5.8C106.6,17.4,104.5,14.9,99.6,14.9z M101.3,33.3l-13.7,0l0,14.2   c0,0,3.8,0,13.7,0c5.5,0,8-3.5,8-7.1C109.3,36.8,106.8,33.2,101.3,33.3z M138.1,54.3c0,0-2.1,0-11.4,0c-2.1,0-3.7-1.6-3.7-3.7   l0-38.8c0-2.1,1.7-3.7,3.7-3.7l11.4,0c15.4,0,23.9,10.3,23.9,23.1C162,43.9,153.4,54.3,138.1,54.3z M137.6,14.9l-7.1,0l0,32.6   l7.1,0c10.9,0,17-6.4,17-16.3C154.6,21.2,148.6,14.9,137.6,14.9z"/>
	<path id="XMLID_16_" class="st2" d="M17.9,29.4c-0.1,0-17.5,6-17.5,6C0.1,34,0,32.5,0,31.1c0-4.5,1-8.9,2.7-12.7   c0,0,15.1,10.6,15.2,10.7c0.1,0.1,0.1,0.1,0.1,0.2C18.1,29.3,18,29.4,17.9,29.4 M30.9,0c-6.1,0-11.8,1.8-16.6,4.9   c0,0,12.3,13.1,12.8,13.5c0.1,0.1,0.1,0.1,0.2,0.1c0.1,0,0.2,0,0.2-0.2C27.7,17.5,30.9,0,30.9,0z M21.2,22.4c0,0,0-0.1,0-0.2   c0-0.1-7-17.2-7-17.2C9.2,8.2,5.3,12.7,2.8,18.1c0,0,17.9,4.4,18,4.5c0.1,0,0.1,0,0.2,0C21.1,22.6,21.2,22.5,21.2,22.4z M44.3,29.4   c0.1,0,17.5,6,17.5,6c0.2-1.4,0.3-2.9,0.3-4.4c0-4.5-1-8.9-2.7-12.7c0,0-15.1,10.6-15.2,10.7c-0.1,0.1-0.1,0.1-0.1,0.2   C44.1,29.3,44.2,29.4,44.3,29.4z M34.6,18.3c0,0.1,0.1,0.2,0.2,0.2c0.1,0,0.1-0.1,0.2-0.1c0.4-0.4,12.8-13.5,12.8-13.5   C43,1.8,37.3,0,31.2,0C31.2,0,34.5,17.5,34.6,18.3z M41.1,22.6c0.1,0,0.1,0,0.2,0c0.1,0,18-4.5,18-4.5C56.8,12.7,52.9,8.2,48,5   c0,0-7,17.2-7,17.2c0,0.1,0,0.1,0,0.2C40.9,22.5,41,22.6,41.1,22.6z"/>
	<path id="XMLID_15_" class="st2" d="M31.1,62.1c15.6,0,28.5-11.4,30.7-26.4l-11.6,1.6c-0.2,0-0.3,0.1-0.3,0.2   c-2.3,6.7-8.1,11.8-15.2,13.1c2.7-1.3,4.6-4.1,4.6-7.4c0-4.5-3.7-8.2-8.2-8.2c-4.5,0-8.2,3.7-8.2,8.2c0,3.2,1.9,6,4.6,7.4   c-7.2-1.3-13-6.4-15.2-13.1c0-0.1-0.1-0.2-0.3-0.2L0.3,35.7C2.6,50.7,15.5,62.1,31.1,62.1"/>
</g>
</svg>