<!-- Generator: Adobe Illustrator 21.0.2, SVG Export Plug-In  -->
<svg version="1.1"
	 xmlns="http://www.w3.org/2000/svg" xmlns:xlink="http://www.w3.org/1999/xlink" xmlns:a="http://ns.adobe.com/AdobeSVGViewerExtensions/3.0/"
	 x="0px" y="0px" width="600px" height="600px" viewBox="0 0 600 600" style="enable-background:new 0 0 600 600;"
	 xml:space="preserve">
<style type="text/css">
	.st0{fill:#EF770F;}
	.st1{fill:#FFFFFF;}
</style>
<defs>
</defs>
<g>
	<circle class="st0" cx="300" cy="300" r="300"/>
	<g>
		<path class="st1" d="M495.5,450l-39.2-22.6v15.1H147.5V147.1h15.1l-22.6-39.2l-22.6,39.2h15.1V450c0,4.2,3.4,7.6,7.6,7.6h316.5
			v15.1L495.5,450z"/>
		<path class="st1" d="M183.9,381.9h34.3c4.2,0,7.6-3.4,7.6-7.6V206.8c0-4.2-3.4-7.6-7.6-7.6h-34.3c-4.2,0-7.6,3.4-7.6,7.6v167.6
			C176.4,378.5,179.7,381.9,183.9,381.9z M191.5,214.3h19.2v152.4h-19.2V214.3z"/>
		<path class="st1" d="M261.9,381.9h34.3c4.2,0,7.6-3.4,7.6-7.6V206.8c0-4.2-3.4-7.6-7.6-7.6h-34.3c-4.2,0-7.6,3.4-7.6,7.6v167.6
			C254.3,378.5,257.7,381.9,261.9,381.9z M269.4,214.3h19.2v152.4h-19.2V214.3z"/>
		<path class="st1" d="M339.8,381.9h34.3c4.2,0,7.6-3.4,7.6-7.6V206.8c0-4.2-3.4-7.6-7.6-7.6h-34.3c-4.2,0-7.6,3.4-7.6,7.6v167.6
			C332.3,378.5,335.7,381.9,339.8,381.9z M347.4,214.3h19.2v152.4h-19.2V214.3z"/>
		<path class="st1" d="M417.8,381.9h34.3c4.2,0,7.6-3.4,7.6-7.6V206.8c0-4.2-3.4-7.6-7.6-7.6h-34.3c-4.2,0-7.6,3.4-7.6,7.6v167.6
			C410.3,378.5,413.6,381.9,417.8,381.9z M425.4,214.3h19.2v152.4h-19.2V214.3z"/>
	</g>
</g>
</svg>
