<!-- Generator: Adobe Illustrator 21.0.2, SVG Export Plug-In  -->
<svg version="1.1"
	 xmlns="http://www.w3.org/2000/svg" xmlns:xlink="http://www.w3.org/1999/xlink" xmlns:a="http://ns.adobe.com/AdobeSVGViewerExtensions/3.0/"
	 x="0px" y="0px" width="600px" height="600px" viewBox="0 0 600 600" style="enable-background:new 0 0 600 600;"
	 xml:space="preserve">
<style type="text/css">
	.st0{fill:#EF770F;}
	.st1{fill:#FFFFFF;}
</style>
<defs>
</defs>
<g>
	<circle class="st0" cx="300" cy="300" r="300"/>
	<g>
		<path class="st1" d="M495.5,450l-39.2-22.6v15.1H147.5V147.1h15.1l-22.6-39.2l-22.6,39.2h15.1V450c0,4.2,3.4,7.6,7.6,7.6h316.5
			v15.1L495.5,450z"/>
		<path class="st1" d="M159,382h39.6c4.2,0,7.6-3.4,7.6-7.6V222.3h30.1v152.1c0,4.2,3.4,7.6,7.6,7.6h32.5c4.2,0,7.6-3.4,7.6-7.6
			V222.3h24.5v152.1c0,4.2,3.4,7.6,7.6,7.6h60.8c4.2,0,7.6-3.4,7.6-7.6V222.3h21.6v152.1c0,4.2,3.4,7.6,7.6,7.6h41v-15.1H421V214.7
			c0-4.2-3.4-7.6-7.6-7.6h-36.7c-4.2,0-7.6,3.4-7.6,7.6v152.1h-45.6V214.7c0-4.2-3.4-7.6-7.6-7.6h-39.6c-4.2,0-7.6,3.4-7.6,7.6
			v152.1h-17.4V214.7c0-4.2-3.4-7.6-7.6-7.6h-45.2c-4.2,0-7.6,3.4-7.6,7.6v152.1h-32V382z"/>
	</g>
</g>
</svg>
