<!-- Generator: Adobe Illustrator 21.0.2, SVG Export Plug-In  -->
<svg version="1.1"
	 xmlns="http://www.w3.org/2000/svg" xmlns:xlink="http://www.w3.org/1999/xlink" xmlns:a="http://ns.adobe.com/AdobeSVGViewerExtensions/3.0/"
	 x="0px" y="0px" width="600px" height="600px" viewBox="0 0 600 600" style="enable-background:new 0 0 600 600;"
	 xml:space="preserve">
<style type="text/css">
	.st0{fill:#EE7B0F;}
	.st1{fill:#FFFFFF;}
</style>
<defs>
</defs>
<g>
	<circle class="st0" cx="300" cy="300" r="300"/>
	<g>
		<path class="st1" d="M448.8,138.2L448.8,138.2l-140.9,0c-4.2,0-7.6-3.4-7.6-7.6c0-4.2,3.4-7.6,7.6-7.6l0,0l140.9,0
			c4.2,0,7.6,3.4,7.6,7.6C456.3,134.8,453,138.2,448.8,138.2z"/>
		<path class="st1" d="M448.8,185.8H307.9c-4.2,0-7.6-3.4-7.6-7.6c0-4.2,3.4-7.6,7.6-7.6h140.9c4.2,0,7.6,3.4,7.6,7.6
			C456.3,182.5,453,185.8,448.8,185.8z"/>
		<path class="st1" d="M185.1,201.6c-1.9,0-3.8-0.7-5.2-2L146,167.8c-3-2.9-3.2-7.6-0.3-10.7c2.9-3,7.6-3.2,10.7-0.3l28.2,26.4
			l65.3-74.6c2.7-3.1,7.5-3.5,10.7-0.7c3.1,2.8,3.5,7.5,0.7,10.7L190.8,199c-1.4,1.5-3.3,2.5-5.3,2.6
			C185.3,201.6,185.2,201.6,185.1,201.6z"/>
	</g>
	<g>
		<path class="st1" d="M448.8,272.7L448.8,272.7l-140.9,0c-4.2,0-7.6-3.4-7.6-7.6c0-4.2,3.4-7.6,7.6-7.6l0,0l140.9,0
			c4.2,0,7.6,3.4,7.6,7.6C456.3,269.4,453,272.7,448.8,272.7z"/>
		<path class="st1" d="M448.8,320.4H307.9c-4.2,0-7.6-3.4-7.6-7.6c0-4.2,3.4-7.6,7.6-7.6h140.9c4.2,0,7.6,3.4,7.6,7.6
			C456.3,317,453,320.4,448.8,320.4z"/>
		<path class="st1" d="M185.1,336.2c-1.9,0-3.8-0.7-5.2-2L146,302.3c-3-2.9-3.2-7.6-0.3-10.7c2.9-3,7.6-3.2,10.7-0.3l28.2,26.4
			l65.3-74.5c2.7-3.1,7.5-3.5,10.7-0.7c3.1,2.8,3.5,7.5,0.7,10.7l-70.4,80.4c-1.4,1.5-3.3,2.5-5.3,2.6
			C185.3,336.2,185.2,336.2,185.1,336.2z"/>
	</g>
	<g>
		<path class="st1" d="M448.8,407.3H307.9c-4.2,0-7.6-3.4-7.6-7.6c0-4.2,3.4-7.6,7.6-7.6h140.9c4.2,0,7.6,3.4,7.6,7.6
			C456.3,403.9,453,407.3,448.8,407.3z"/>
		<path class="st1" d="M448.8,455H307.9c-4.2,0-7.6-3.4-7.6-7.6c0-4.2,3.4-7.6,7.6-7.6h140.9c4.2,0,7.6,3.4,7.6,7.6
			C456.3,451.6,453,455,448.8,455z"/>
		<path class="st1" d="M185.1,470.7c-1.9,0-3.8-0.7-5.2-2L146,436.9c-3-2.9-3.2-7.6-0.3-10.7c2.9-3,7.6-3.2,10.7-0.3l28.2,26.4
			l65.3-74.5c2.7-3.1,7.5-3.5,10.7-0.7c3.1,2.8,3.5,7.5,0.7,10.7l-70.4,80.4c-1.4,1.5-3.3,2.5-5.3,2.6
			C185.3,470.7,185.2,470.7,185.1,470.7z"/>
	</g>
</g>
</svg>
