<!-- Generator: Adobe Illustrator 21.0.2, SVG Export Plug-In  -->
<svg version="1.1"
	 xmlns="http://www.w3.org/2000/svg" xmlns:xlink="http://www.w3.org/1999/xlink" xmlns:a="http://ns.adobe.com/AdobeSVGViewerExtensions/3.0/"
	 x="0px" y="0px" width="600px" height="600px" viewBox="0 0 600 600" style="enable-background:new 0 0 600 600;"
	 xml:space="preserve">
<style type="text/css">
	.st0{fill:#EF770F;}
	.st1{fill:#FFFFFF;}
</style>
<defs>
</defs>
<g>
	<circle class="st0" cx="300" cy="300" r="300"/>
	<path class="st1" d="M495.6,450l-39.2-22.6v15.1H147.5V147.1h15.1L140,107.9l-22.6,39.2h15.1V450c0,4.2,3.4,7.6,7.6,7.6h316.5v15.1
		L495.6,450z"/>
	<path class="st1" d="M434.9,381.8H185.8c-2.5,0-4.8-1.2-6.2-3.2c-1.4-2-1.8-4.6-0.9-6.9l50.4-139.4c1.1-3,3.9-5,7.1-5h148.2
		c3.2,0,6,2,7.1,5L442,371.7c0.8,2.3,0.5,4.9-0.9,6.9C439.7,380.6,437.4,381.8,434.9,381.8z M196.6,366.7h227.5l-45-124.3H241.5
		L196.6,366.7z"/>
</g>
</svg>
