<!-- Generator: Adobe Illustrator 21.0.2, SVG Export Plug-In  -->
<svg version="1.1"
	 xmlns="http://www.w3.org/2000/svg" xmlns:xlink="http://www.w3.org/1999/xlink" xmlns:a="http://ns.adobe.com/AdobeSVGViewerExtensions/3.0/"
	 x="0px" y="0px" width="600px" height="600px" viewBox="0 0 600 600" style="enable-background:new 0 0 600 600;"
	 xml:space="preserve">
<style type="text/css">
	.st0{fill:#EF770F;}
	.st1{fill:#FFFFFF;}
</style>
<defs>
</defs>
<g>
	<g>
		<circle class="st0" cx="300" cy="300" r="300"/>
		<g>
			<path class="st1" d="M495.5,450l-39.2-22.6v15.1H147.5V147.1h15.1l-22.6-39.2l-22.6,39.2h15.1V450c0,4.2,3.4,7.6,7.6,7.6h316.5
				v15.1L495.5,450z"/>
			<path class="st1" d="M171.8,381.9h51.4c4.2,0,7.6-3.4,7.6-7.6V258.1c0-4.2-3.4-7.6-7.6-7.6h-51.4c-4.2,0-7.6,3.4-7.6,7.6v116.2
				C164.3,378.5,167.7,381.9,171.8,381.9z M179.4,265.7h36.3v101.1h-36.3V265.7z"/>
			<path class="st1" d="M256.6,381.9h34.3c4.2,0,7.6-3.4,7.6-7.6V211.7c0-4.2-3.4-7.6-7.6-7.6h-34.3c-4.2,0-7.6,3.4-7.6,7.6v162.6
				C249.1,378.5,252.5,381.9,256.6,381.9z M264.2,219.3h19.2v147.5h-19.2V219.3z"/>
			<path class="st1" d="M324.3,381.9h42.9c4.2,0,7.6-3.4,7.6-7.6V177.2c0-4.2-3.4-7.6-7.6-7.6h-42.9c-4.2,0-7.6,3.4-7.6,7.6v197.1
				C316.7,378.5,320.1,381.9,324.3,381.9z M331.9,184.8h27.7v182h-27.7V184.8z"/>
			<path class="st1" d="M400.5,381.9H452c4.2,0,7.6-3.4,7.6-7.6V151.9c0-4.2-3.4-7.6-7.6-7.6h-51.4c-4.2,0-7.6,3.4-7.6,7.6v222.5
				C393,378.5,396.4,381.9,400.5,381.9z M408.1,159.4h36.3v207.4h-36.3V159.4z"/>
		</g>
	</g>
</g>
</svg>
