<svg xmlns="http://www.w3.org/2000/svg" viewBox="0 0 226.77 321.77"><defs><style>.cls-1{fill:#7a7f96;}.cls-2{fill:#253e80;}.cls-3,.cls-4,.cls-5,.cls-7,.cls-8{fill:none;stroke:#3f456b;stroke-miterlimit:10;}.cls-3{stroke-width:3.64px;}.cls-4{stroke-width:2.73px;}.cls-5{stroke-width:2.28px;}.cls-6{fill:#b6b2af;}.cls-7{stroke-width:1.71px;}.cls-8{stroke-width:2.4px;}.cls-9{fill:#c7c1bc;opacity:0.71;}</style></defs><title>S-27</title><g id="Layer_1" data-name="Layer 1"><path class="cls-1" d="M53.44,179.56s3.86-6.07,4.27-7.74,3.73-6.95,7.27-8.2,17.6.4,20.73,1.24,20.74,9.54,26.57,15.79,8,9.13,9.62,12.67a8.2,8.2,0,0,1-.77,8.63c-1.46,1.87-4.79,8.75-8.54,9.17s-20.12,2.64-39.67-10.9c-7.41-5.13-16.43-14.78-17.62-17.43A10.63,10.63,0,0,0,53.44,179.56Z"/><path class="cls-2" d="M31.41,233.73l10.93-19.85s1.27-1.13,1.76-4.31c.3-2-1.11-4.47-.93-6.81.22-2.88,2-5.52,2.5-6.59,1.46-3.33,7.92-15.21,7.92-15.21a82.13,82.13,0,0,0,10,11.12,82.08,82.08,0,0,0,15.83,10.75,72.82,72.82,0,0,0,16.84,6.77c8.32,2.13,13.59,1.5,18.69,1.5,1.83,0-14.7,23-17.2,24-.83.35-3.26.54-5.24,2.13-3.95,3.16-8.38,8.85-10.6,11.21-3.33,3.54-8.38,13.74-12.13,14-6.42.38-11.42-1.27-15.79-2.9A36.23,36.23,0,0,1,45.8,255c-2.92-2.08-7-3-8.46-8S31.41,233.73,31.41,233.73Z"/><ellipse class="cls-3" cx="94.58" cy="178.15" rx="9.62" ry="25.39" transform="translate(-107.1 180.51) rotate(-62.71)"/><path class="cls-4" d="M116.78,185c2.11,3.08,8.41,10.46,6.78,14.12-2.64,5.89-19.56,3-37.08-6s-29.33-21-26.37-26.75c1.72-3.33,9-4.56,17.43-2.61"/><path class="cls-4" d="M115.91,210.24c-5.12,3.53-19.68,1.73-35.33-6.34-13.84-7.14-24.75-19.08-27-25.35"/><path class="cls-4" d="M59.88,167.34,43.47,199.83s-.41,6.21,1.66,9.53L31.87,233l6.94,17.5L57.6,261.38l15.28-.26,20.71-25.68s4.56-.83,5.8-1.24,22.22-33.14,22.22-33.14"/><path class="cls-5" d="M45.13,209.35S55.38,232,92.43,235.7"/><path class="cls-4" d="M47.35,193.17s16.71,35.12,58.16,32.49"/><path class="cls-6" d="M105.31,184.3S102,186,92.7,181.22c-11.73-6.08-8-10.29-8-10.29L107,137.19s3.88-.82,12.34,3.27,9.93,9.11,9.93,9.11Z"/><ellipse class="cls-7" cx="117.39" cy="144.21" rx="4.22" ry="12.89" transform="translate(-64.59 182.41) rotate(-62.71)"/><path class="cls-8" d="M83.59,165.46m2.58-.14c-1.63.1-4.49-.93-5.82,1.64-1.51,2.89,4.47,8.94,13.31,13.5s17.22,5.92,18.71,3a3.65,3.65,0,0,0,.1-3.93"/><line class="cls-7" x1="40.8" y1="250.19" x2="56.29" y2="222.85"/><line class="cls-7" x1="57.66" y1="259.76" x2="73.15" y2="232.42"/><path class="cls-9" d="M191.37,26.47s-66.44,79.94-84.84,112.41c0,0,.37,3.63,9.24,8.37C124.2,151.76,128,150,128,150s68-101.17,79.35-115.75C207.31,34.22,203.67,31.94,191.37,26.47Z"/></g>
</svg>